<?xml version="1.0" encoding="utf-8"?>
<svg viewBox="0 0 970 90" xmlns="http://www.w3.org/2000/svg">
  <rect width="970" height="90" style="stroke: rgba(0, 0, 0, 0); fill: rgb(0, 8, 23);" transform="matrix(0.9999999999999999, 0, 0, 0.9999999999999999, -2.842170943040401e-14, -5.684341886080802e-14)"/>
  <g transform="matrix(0.7502129673957825, 0, 0, 0.7502129673957825, -425.5298156738281, -21.56788063049322)" style="">
    <title>sword</title>
    <g style="" transform="matrix(0.472067, 0, 0, 0.472067, 565.267822, 25.966618)">
      <g style="">
        <title>hilt</title>
        <path style="stroke-width: 5px; stroke: rgb(0, 0, 0); fill: rgb(126, 53, 38);" d="M 52.169 194.328 L 73.208 169.558 L 90.893 187.429 L 65.041 209.413 L 52.169 194.328 Z"/>
        <rect x="75.191" y="143.134" width="20.577" height="4.172" style="stroke: rgba(0, 0, 0, 0); transform-box: fill-box; transform-origin: 50% 50%;" transform="matrix(0.707107, 0.707107, -0.707107, 0.707107, -18.368324, 48.249201)"/>
        <rect x="75.191" y="158.927" width="20.577" height="4.632" style="stroke: rgba(0, 0, 0, 0); transform-origin: 85.48px 161.242px;" transform="matrix(0.707107, 0.707107, -0.707107, 0.707107, -10.997615, 24.343941)"/>
      </g>
      <ellipse style="stroke: rgb(0, 0, 0); stroke-width: 6px; fill: rgb(255, 188, 57);" cx="48.485" cy="211.99" rx="16.13" ry="16.13"/>
      <rect x="52.947" y="142.469" width="71.619" height="23.179" style="stroke: rgb(0, 0, 0); stroke-width: 8px; fill: rgb(255, 185, 49); transform-box: fill-box; transform-origin: 50% 50%;" transform="matrix(0.707107, 0.707107, -0.707107, 0.707107, 2.444787, 15.371213)"/>
      <path style="stroke-width: 6px; fill: rgb(204, 204, 204); stroke: rgb(0, 0, 0);" d="M 83.778 144.403 L 166.556 45.706 L 225.986 34.74 L 215.374 93.816 L 116.323 176.24 L 83.778 144.403 Z"/>
      <path style="fill: rgb(255, 255, 255); stroke: rgba(255, 0, 0, 0);" d="M 110.976 113.671 L 211.575 95.693 L 216.221 82.966 L 122.086 99.329 L 110.976 113.671 Z"/>
      <path style="stroke: rgba(219, 130, 130, 0); fill: rgb(255, 255, 255);" d="M 104.512 122.559 L 203.292 105.389 L 207.737 98.723 L 107.744 116.095 L 104.512 122.559 Z"/>
      <rect x="140.449" y="73.356" width="175.794" height="5.066" style="stroke: rgba(0, 0, 0, 0); transform-box: fill-box; transform-origin: 50% 50%;" transform="matrix(0.707107, -0.707107, 0.707107, 0.707107, -64.769841, 22.185314)"/>
      <path style="stroke-width: 6px; stroke: rgb(0, 0, 0); fill: rgba(204, 204, 204, 0);" d="M 83.8 144.363 L 166.578 45.666 L 226.008 34.7 L 215.396 93.776 L 116.345 176.2 L 83.8 144.363 Z"/>
    </g>
    <g transform="matrix(1.796939, 0, 0, 1.796939, 626.193359, 96.571548)" style="">
      <g>
        <path d="M19.14,12.94c0.04-0.3,0.06-0.61,0.06-0.94c0-0.32-0.02-0.64-0.07-0.94l2.03-1.58c0.18-0.14,0.23-0.41,0.12-0.61 l-1.92-3.32c-0.12-0.22-0.37-0.29-0.59-0.22l-2.39,0.96c-0.5-0.38-1.03-0.7-1.62-0.94L14.4,2.81c-0.04-0.24-0.24-0.41-0.48-0.41 h-3.84c-0.24,0-0.43,0.17-0.47,0.41L9.25,5.35C8.66,5.59,8.12,5.92,7.63,6.29L5.24,5.33c-0.22-0.08-0.47,0-0.59,0.22L2.74,8.87 C2.62,9.08,2.66,9.34,2.86,9.48l2.03,1.58C4.84,11.36,4.8,11.69,4.8,12s0.02,0.64,0.07,0.94l-2.03,1.58 c-0.18,0.14-0.23,0.41-0.12,0.61l1.92,3.32c0.12,0.22,0.37,0.29,0.59,0.22l2.39-0.96c0.5,0.38,1.03,0.7,1.62,0.94l0.36,2.54 c0.05,0.24,0.24,0.41,0.48,0.41h3.84c0.24,0,0.44-0.17,0.47-0.41l0.36-2.54c0.59-0.24,1.13-0.56,1.62-0.94l2.39,0.96 c0.22,0.08,0.47,0,0.59-0.22l1.92-3.32c0.12-0.22,0.07-0.47-0.12-0.61L19.14,12.94z M12,15.6c-1.98,0-3.6-1.62-3.6-3.6 s1.62-3.6,3.6-3.6s3.6,1.62,3.6,3.6S13.98,15.6,12,15.6z" style="fill: rgb(247, 250, 252);"/>
      </g>
    </g>
  </g>
  <path d="M 397.18 21.246 Q 397.069 20.133 396.232 19.517 Q 395.395 18.901 393.96 18.901 Q 392.985 18.901 392.314 19.172 Q 391.643 19.443 391.289 19.922 Q 390.934 20.4 390.934 21.007 Q 390.916 21.513 391.151 21.89 Q 391.385 22.267 391.799 22.538 Q 392.213 22.809 392.756 23.007 Q 393.298 23.205 393.914 23.343 L 395.607 23.748 Q 396.839 24.024 397.869 24.483 Q 398.899 24.943 399.654 25.615 Q 400.408 26.286 400.826 27.197 Q 401.245 28.107 401.254 29.284 Q 401.245 31.014 400.376 32.278 Q 399.506 33.543 397.874 34.237 Q 396.241 34.932 393.942 34.932 Q 391.661 34.932 389.973 34.233 Q 388.286 33.534 387.343 32.159 Q 386.4 30.784 386.354 28.751 L 390.208 28.751 Q 390.272 29.698 390.755 30.328 Q 391.238 30.958 392.052 31.276 Q 392.866 31.593 393.896 31.593 Q 394.908 31.593 395.657 31.299 Q 396.407 31.004 396.821 30.48 Q 397.235 29.956 397.235 29.275 Q 397.235 28.641 396.862 28.208 Q 396.49 27.776 395.777 27.473 Q 395.064 27.169 394.034 26.921 L 391.983 26.406 Q 389.601 25.826 388.221 24.594 Q 386.842 23.361 386.851 21.274 Q 386.842 19.563 387.766 18.284 Q 388.69 17.006 390.309 16.289 Q 391.928 15.571 393.988 15.571 Q 396.085 15.571 397.653 16.289 Q 399.221 17.006 400.095 18.284 Q 400.969 19.563 400.996 21.246 Z M 406.628 34.665 L 402.783 20.538 L 406.747 20.538 L 408.936 30.029 L 409.065 30.029 L 411.346 20.538 L 415.236 20.538 L 417.554 29.974 L 417.674 29.974 L 419.826 20.538 L 423.781 20.538 L 419.945 34.665 L 415.797 34.665 L 413.369 25.78 L 413.194 25.78 L 410.766 34.665 Z M 431.896 34.941 Q 429.753 34.941 428.194 34.026 Q 426.635 33.111 425.788 31.469 Q 424.942 29.827 424.942 27.657 Q 424.942 25.468 425.788 23.826 Q 426.635 22.184 428.194 21.269 Q 429.753 20.354 431.896 20.354 Q 434.039 20.354 435.598 21.269 Q 437.157 22.184 438.003 23.826 Q 438.849 25.468 438.849 27.657 Q 438.849 29.827 438.003 31.469 Q 437.157 33.111 435.598 34.026 Q 434.039 34.941 431.896 34.941 Z M 431.914 31.906 Q 432.889 31.906 433.542 31.349 Q 434.195 30.793 434.531 29.827 Q 434.866 28.861 434.866 27.629 Q 434.866 26.396 434.531 25.431 Q 434.195 24.465 433.542 23.904 Q 432.889 23.343 431.914 23.343 Q 430.93 23.343 430.263 23.904 Q 429.596 24.465 429.261 25.431 Q 428.925 26.396 428.925 27.629 Q 428.925 28.861 429.261 29.827 Q 429.596 30.793 430.263 31.349 Q 430.93 31.906 431.914 31.906 Z M 441.403 34.665 L 441.403 20.538 L 445.202 20.538 L 445.202 23.003 L 445.349 23.003 Q 445.735 21.687 446.646 21.011 Q 447.556 20.335 448.743 20.335 Q 449.037 20.335 449.377 20.372 Q 449.718 20.409 449.975 20.473 L 449.975 23.95 Q 449.699 23.867 449.212 23.803 Q 448.724 23.738 448.32 23.738 Q 447.455 23.738 446.779 24.111 Q 446.103 24.483 445.712 25.146 Q 445.321 25.808 445.321 26.672 L 445.321 34.665 Z M 456.531 34.895 Q 454.921 34.895 453.62 34.063 Q 452.318 33.23 451.56 31.607 Q 450.801 29.984 450.801 27.62 Q 450.801 25.192 451.583 23.577 Q 452.364 21.963 453.666 21.159 Q 454.967 20.354 456.522 20.354 Q 457.708 20.354 458.504 20.754 Q 459.299 21.154 459.791 21.747 Q 460.283 22.34 460.541 22.911 L 460.66 22.911 L 460.66 15.829 L 464.569 15.829 L 464.569 34.665 L 460.706 34.665 L 460.706 32.402 L 460.541 32.402 Q 460.265 32.991 459.764 33.566 Q 459.262 34.141 458.467 34.518 Q 457.671 34.895 456.531 34.895 Z M 457.772 31.777 Q 458.72 31.777 459.377 31.257 Q 460.035 30.738 460.389 29.8 Q 460.743 28.861 460.743 27.601 Q 460.743 26.341 460.394 25.412 Q 460.044 24.483 459.382 23.978 Q 458.72 23.472 457.772 23.472 Q 456.807 23.472 456.145 23.996 Q 455.482 24.52 455.142 25.449 Q 454.802 26.378 454.802 27.601 Q 454.802 28.834 455.147 29.777 Q 455.492 30.719 456.149 31.248 Q 456.807 31.777 457.772 31.777 Z M 473.867 15.829 L 478.779 15.829 L 483.966 28.484 L 484.187 28.484 L 489.374 15.829 L 494.286 15.829 L 494.286 34.665 L 490.423 34.665 L 490.423 22.405 L 490.266 22.405 L 485.392 34.573 L 482.761 34.573 L 477.887 22.359 L 477.73 22.359 L 477.73 34.665 L 473.867 34.665 Z M 501.51 34.932 Q 500.158 34.932 499.1 34.458 Q 498.042 33.984 497.431 33.051 Q 496.819 32.117 496.819 30.719 Q 496.819 29.542 497.251 28.742 Q 497.684 27.942 498.429 27.454 Q 499.174 26.967 500.126 26.718 Q 501.078 26.47 502.126 26.369 Q 503.358 26.24 504.113 26.125 Q 504.867 26.01 505.207 25.78 Q 505.547 25.55 505.547 25.1 L 505.547 25.044 Q 505.547 24.171 505 23.692 Q 504.453 23.214 503.45 23.214 Q 502.393 23.214 501.767 23.679 Q 501.142 24.143 500.94 24.842 L 497.316 24.548 Q 497.592 23.26 498.401 22.317 Q 499.21 21.375 500.493 20.864 Q 501.777 20.354 503.469 20.354 Q 504.646 20.354 505.727 20.63 Q 506.808 20.906 507.649 21.485 Q 508.491 22.065 508.978 22.97 Q 509.466 23.876 509.466 25.136 L 509.466 34.665 L 505.75 34.665 L 505.75 32.706 L 505.639 32.706 Q 505.299 33.368 504.729 33.869 Q 504.159 34.371 503.358 34.651 Q 502.558 34.932 501.51 34.932 Z M 502.632 32.228 Q 503.496 32.228 504.159 31.883 Q 504.821 31.538 505.198 30.949 Q 505.575 30.361 505.575 29.616 L 505.575 28.116 Q 505.391 28.236 505.074 28.333 Q 504.756 28.429 504.361 28.507 Q 503.966 28.585 503.57 28.645 Q 503.175 28.705 502.853 28.751 Q 502.163 28.852 501.648 29.073 Q 501.133 29.294 500.848 29.666 Q 500.562 30.039 500.562 30.591 Q 500.562 31.391 501.147 31.809 Q 501.731 32.228 502.632 32.228 Z M 516.431 26.498 L 516.431 34.665 L 512.513 34.665 L 512.513 20.538 L 516.247 20.538 L 516.247 23.03 L 516.412 23.03 Q 516.881 21.798 517.985 21.076 Q 519.089 20.354 520.662 20.354 Q 522.133 20.354 523.228 20.998 Q 524.322 21.641 524.929 22.832 Q 525.536 24.024 525.536 25.67 L 525.536 34.665 L 521.618 34.665 L 521.618 26.369 Q 521.627 25.072 520.956 24.341 Q 520.284 23.61 519.107 23.61 Q 518.316 23.61 517.714 23.95 Q 517.111 24.29 516.776 24.939 Q 516.44 25.587 516.431 26.498 Z M 532.635 34.932 Q 531.283 34.932 530.225 34.458 Q 529.167 33.984 528.556 33.051 Q 527.944 32.117 527.944 30.719 Q 527.944 29.542 528.376 28.742 Q 528.809 27.942 529.554 27.454 Q 530.299 26.967 531.251 26.718 Q 532.202 26.47 533.251 26.369 Q 534.483 26.24 535.238 26.125 Q 535.992 26.01 536.332 25.78 Q 536.672 25.55 536.672 25.1 L 536.672 25.044 Q 536.672 24.171 536.125 23.692 Q 535.578 23.214 534.575 23.214 Q 533.518 23.214 532.892 23.679 Q 532.267 24.143 532.065 24.842 L 528.441 24.548 Q 528.717 23.26 529.526 22.317 Q 530.335 21.375 531.618 20.864 Q 532.901 20.354 534.594 20.354 Q 535.771 20.354 536.852 20.63 Q 537.932 20.906 538.774 21.485 Q 539.616 22.065 540.103 22.97 Q 540.591 23.876 540.591 25.136 L 540.591 34.665 L 536.875 34.665 L 536.875 32.706 L 536.764 32.706 Q 536.424 33.368 535.854 33.869 Q 535.284 34.371 534.483 34.651 Q 533.683 34.932 532.635 34.932 Z M 533.757 32.228 Q 534.621 32.228 535.284 31.883 Q 535.946 31.538 536.323 30.949 Q 536.7 30.361 536.7 29.616 L 536.7 28.116 Q 536.516 28.236 536.199 28.333 Q 535.881 28.429 535.486 28.507 Q 535.09 28.585 534.695 28.645 Q 534.3 28.705 533.978 28.751 Q 533.288 28.852 532.773 29.073 Q 532.258 29.294 531.973 29.666 Q 531.687 30.039 531.687 30.591 Q 531.687 31.391 532.271 31.809 Q 532.856 32.228 533.757 32.228 Z M 550.002 40.257 Q 548.098 40.257 546.742 39.737 Q 545.385 39.218 544.585 38.326 Q 543.785 37.433 543.546 36.321 L 547.169 35.833 Q 547.335 36.256 547.694 36.624 Q 548.052 36.992 548.646 37.217 Q 549.239 37.443 550.094 37.443 Q 551.373 37.443 552.205 36.822 Q 553.037 36.201 553.037 34.748 L 553.037 32.163 L 552.872 32.163 Q 552.614 32.752 552.099 33.276 Q 551.584 33.8 550.775 34.132 Q 549.965 34.463 548.843 34.463 Q 547.252 34.463 545.951 33.722 Q 544.649 32.982 543.881 31.45 Q 543.113 29.919 543.113 27.574 Q 543.113 25.173 543.895 23.564 Q 544.677 21.954 545.978 21.154 Q 547.28 20.354 548.834 20.354 Q 550.021 20.354 550.821 20.754 Q 551.621 21.154 552.113 21.747 Q 552.605 22.34 552.872 22.911 L 553.019 22.911 L 553.019 20.538 L 556.909 20.538 L 556.909 34.803 Q 556.909 36.606 556.026 37.82 Q 555.144 39.034 553.585 39.645 Q 552.026 40.257 550.002 40.257 Z M 550.085 31.519 Q 551.032 31.519 551.69 31.046 Q 552.348 30.572 552.702 29.685 Q 553.056 28.797 553.056 27.555 Q 553.056 26.314 552.706 25.399 Q 552.357 24.483 551.694 23.978 Q 551.032 23.472 550.085 23.472 Q 549.119 23.472 548.457 23.991 Q 547.795 24.511 547.454 25.431 Q 547.114 26.351 547.114 27.555 Q 547.114 28.779 547.459 29.666 Q 547.804 30.554 548.462 31.037 Q 549.119 31.519 550.085 31.519 Z M 566.482 34.941 Q 564.302 34.941 562.734 34.053 Q 561.166 33.166 560.32 31.533 Q 559.474 29.901 559.474 27.666 Q 559.474 25.486 560.32 23.84 Q 561.166 22.193 562.706 21.274 Q 564.247 20.354 566.326 20.354 Q 567.724 20.354 568.933 20.8 Q 570.143 21.246 571.049 22.138 Q 571.954 23.03 572.46 24.378 Q 572.966 25.725 572.966 27.528 L 572.966 28.604 L 561.037 28.604 L 561.037 26.176 L 569.278 26.176 Q 569.278 25.33 568.91 24.677 Q 568.542 24.024 567.894 23.651 Q 567.245 23.279 566.39 23.279 Q 565.498 23.279 564.813 23.688 Q 564.127 24.097 563.741 24.782 Q 563.355 25.468 563.346 26.305 L 563.346 28.613 Q 563.346 29.662 563.737 30.425 Q 564.127 31.188 564.845 31.602 Q 565.562 32.016 566.546 32.016 Q 567.199 32.016 567.742 31.832 Q 568.285 31.648 568.671 31.28 Q 569.057 30.912 569.26 30.379 L 572.883 30.618 Q 572.607 31.924 571.757 32.894 Q 570.906 33.865 569.568 34.403 Q 568.23 34.941 566.482 34.941 Z M 575.513 34.665 L 575.513 20.538 L 579.311 20.538 L 579.311 23.003 L 579.458 23.003 Q 579.845 21.687 580.755 21.011 Q 581.666 20.335 582.852 20.335 Q 583.146 20.335 583.487 20.372 Q 583.827 20.409 584.085 20.473 L 584.085 23.95 Q 583.809 23.867 583.321 23.803 Q 582.834 23.738 582.429 23.738 Q 581.564 23.738 580.888 24.111 Q 580.212 24.483 579.822 25.146 Q 579.431 25.808 579.431 26.672 L 579.431 34.665 Z" style="fill: rgb(248, 250, 252);"/>
  <path d="M 185.941 68.659 L 193.061 50.119 L 195.704 50.119 L 203.292 68.659 L 200.497 68.659 L 198.335 63.044 L 190.582 63.044 L 188.546 68.659 Z M 191.291 61.046 L 197.576 61.046 L 195.641 55.911 Q 194.756 53.572 194.326 52.067 Q 193.972 53.85 193.327 55.608 Z M 204.901 68.659 L 204.901 50.119 L 207.178 50.119 L 207.178 68.659 Z M 210.651 68.659 L 210.651 50.119 L 212.928 50.119 L 212.928 68.659 Z M 223.554 73.831 L 223.301 71.694 Q 224.047 71.896 224.604 71.896 Q 225.362 71.896 225.818 71.644 Q 226.273 71.391 226.564 70.935 Q 226.779 70.594 227.259 69.241 Q 227.323 69.051 227.462 68.684 L 222.365 55.228 L 224.819 55.228 L 227.613 63.006 Q 228.157 64.486 228.587 66.117 Q 228.979 64.549 229.523 63.057 L 232.394 55.228 L 234.67 55.228 L 229.561 68.887 Q 228.739 71.1 228.284 71.934 Q 227.677 73.06 226.893 73.585 Q 226.108 74.11 225.021 74.11 Q 224.363 74.11 223.554 73.831 Z M 235.761 61.944 Q 235.761 58.213 237.835 56.417 Q 239.567 54.925 242.059 54.925 Q 244.828 54.925 246.586 56.74 Q 248.344 58.554 248.344 61.754 Q 248.344 64.347 247.566 65.833 Q 246.789 67.318 245.303 68.14 Q 243.817 68.963 242.059 68.963 Q 239.239 68.963 237.5 67.154 Q 235.761 65.346 235.761 61.944 Z M 238.1 61.944 Q 238.1 64.524 239.226 65.807 Q 240.352 67.091 242.059 67.091 Q 243.753 67.091 244.879 65.801 Q 246.004 64.511 246.004 61.868 Q 246.004 59.376 244.873 58.093 Q 243.741 56.809 242.059 56.809 Q 240.352 56.809 239.226 58.087 Q 238.1 59.364 238.1 61.944 Z M 259.816 68.659 L 259.816 66.686 Q 258.248 68.963 255.554 68.963 Q 254.366 68.963 253.335 68.507 Q 252.304 68.052 251.805 67.363 Q 251.305 66.673 251.103 65.674 Q 250.964 65.004 250.964 63.55 L 250.964 55.228 L 253.24 55.228 L 253.24 62.677 Q 253.24 64.46 253.379 65.08 Q 253.594 65.978 254.29 66.49 Q 254.985 67.002 256.01 67.002 Q 257.034 67.002 257.932 66.477 Q 258.83 65.953 259.203 65.048 Q 259.576 64.144 259.576 62.424 L 259.576 55.228 L 261.852 55.228 L 261.852 68.659 Z M 265.395 68.659 L 265.395 55.228 L 267.444 55.228 L 267.444 57.265 Q 268.228 55.835 268.892 55.38 Q 269.556 54.925 270.353 54.925 Q 271.504 54.925 272.692 55.658 L 271.908 57.77 Q 271.074 57.277 270.239 57.277 Q 269.493 57.277 268.898 57.726 Q 268.304 58.175 268.051 58.972 Q 267.672 60.186 267.672 61.628 L 267.672 68.659 Z M 280.689 62.703 L 283.004 62.5 Q 283.168 63.891 283.769 64.783 Q 284.369 65.674 285.634 66.225 Q 286.899 66.775 288.48 66.775 Q 289.883 66.775 290.958 66.357 Q 292.033 65.94 292.558 65.213 Q 293.083 64.486 293.083 63.626 Q 293.083 62.753 292.577 62.102 Q 292.071 61.451 290.908 61.008 Q 290.162 60.717 287.607 60.104 Q 285.052 59.49 284.028 58.946 Q 282.7 58.251 282.049 57.22 Q 281.398 56.19 281.398 54.912 Q 281.398 53.509 282.194 52.288 Q 282.991 51.068 284.521 50.435 Q 286.051 49.803 287.923 49.803 Q 289.985 49.803 291.559 50.467 Q 293.133 51.131 293.981 52.421 Q 294.828 53.711 294.891 55.342 L 292.539 55.519 Q 292.349 53.761 291.255 52.864 Q 290.162 51.966 288.024 51.966 Q 285.799 51.966 284.78 52.781 Q 283.762 53.597 283.762 54.748 Q 283.762 55.747 284.483 56.392 Q 285.192 57.037 288.182 57.713 Q 291.173 58.39 292.286 58.896 Q 293.905 59.642 294.676 60.787 Q 295.448 61.931 295.448 63.423 Q 295.448 64.903 294.6 66.212 Q 293.753 67.521 292.166 68.248 Q 290.579 68.975 288.593 68.975 Q 286.077 68.975 284.376 68.242 Q 282.675 67.508 281.707 66.035 Q 280.74 64.562 280.689 62.703 Z M 300.993 68.659 L 296.883 55.228 L 299.235 55.228 L 301.373 62.981 L 302.169 65.864 Q 302.22 65.649 302.865 63.095 L 305.002 55.228 L 307.342 55.228 L 309.352 63.019 L 310.023 65.586 L 310.794 62.993 L 313.096 55.228 L 315.309 55.228 L 311.11 68.659 L 308.745 68.659 L 306.608 60.616 L 306.09 58.327 L 303.371 68.659 Z M 316.37 61.944 Q 316.37 58.213 318.444 56.417 Q 320.177 54.925 322.668 54.925 Q 325.438 54.925 327.196 56.74 Q 328.953 58.554 328.953 61.754 Q 328.953 64.347 328.176 65.833 Q 327.398 67.318 325.912 68.14 Q 324.426 68.963 322.668 68.963 Q 319.848 68.963 318.109 67.154 Q 316.37 65.346 316.37 61.944 Z M 318.71 61.944 Q 318.71 64.524 319.835 65.807 Q 320.961 67.091 322.668 67.091 Q 324.363 67.091 325.488 65.801 Q 326.614 64.511 326.614 61.868 Q 326.614 59.376 325.482 58.093 Q 324.35 56.809 322.668 56.809 Q 320.961 56.809 319.835 58.087 Q 318.71 59.364 318.71 61.944 Z M 331.598 68.659 L 331.598 55.228 L 333.647 55.228 L 333.647 57.265 Q 334.431 55.835 335.095 55.38 Q 335.759 54.925 336.556 54.925 Q 337.707 54.925 338.896 55.658 L 338.111 57.77 Q 337.277 57.277 336.442 57.277 Q 335.696 57.277 335.102 57.726 Q 334.507 58.175 334.254 58.972 Q 333.875 60.186 333.875 61.628 L 333.875 68.659 Z M 348.962 68.659 L 348.962 66.964 Q 347.685 68.963 345.206 68.963 Q 343.6 68.963 342.253 68.077 Q 340.906 67.192 340.167 65.605 Q 339.427 64.018 339.427 61.956 Q 339.427 59.946 340.097 58.308 Q 340.767 56.67 342.108 55.798 Q 343.448 54.925 345.105 54.925 Q 346.319 54.925 347.268 55.437 Q 348.216 55.949 348.81 56.771 L 348.81 50.119 L 351.074 50.119 L 351.074 68.659 Z M 341.766 61.956 Q 341.766 64.536 342.854 65.814 Q 343.942 67.091 345.421 67.091 Q 346.913 67.091 347.957 65.87 Q 349 64.65 349 62.146 Q 349 59.389 347.938 58.099 Q 346.876 56.809 345.32 56.809 Q 343.802 56.809 342.784 58.049 Q 341.766 59.288 341.766 61.956 Z M 362.032 68.659 L 362.032 50.119 L 368.988 50.119 Q 371.112 50.119 372.396 50.682 Q 373.68 51.245 374.407 52.415 Q 375.134 53.584 375.134 54.862 Q 375.134 56.05 374.489 57.1 Q 373.844 58.15 372.541 58.795 Q 374.223 59.288 375.128 60.477 Q 376.032 61.665 376.032 63.284 Q 376.032 64.587 375.482 65.706 Q 374.932 66.825 374.122 67.432 Q 373.313 68.039 372.093 68.349 Q 370.872 68.659 369.102 68.659 Z M 364.486 57.909 L 368.495 57.909 Q 370.126 57.909 370.834 57.694 Q 371.77 57.416 372.244 56.771 Q 372.719 56.126 372.719 55.153 Q 372.719 54.229 372.276 53.527 Q 371.833 52.826 371.011 52.566 Q 370.189 52.307 368.191 52.307 L 364.486 52.307 Z M 364.486 66.471 L 369.102 66.471 Q 370.29 66.471 370.771 66.383 Q 371.618 66.231 372.187 65.877 Q 372.756 65.523 373.123 64.846 Q 373.49 64.169 373.49 63.284 Q 373.49 62.247 372.959 61.482 Q 372.428 60.717 371.485 60.407 Q 370.543 60.097 368.773 60.097 L 364.486 60.097 Z M 387.888 67.002 Q 386.623 68.077 385.453 68.52 Q 384.284 68.963 382.943 68.963 Q 380.73 68.963 379.541 67.881 Q 378.352 66.8 378.352 65.118 Q 378.352 64.132 378.801 63.316 Q 379.25 62.5 379.977 62.007 Q 380.705 61.514 381.615 61.261 Q 382.285 61.084 383.639 60.919 Q 386.396 60.591 387.698 60.135 Q 387.711 59.667 387.711 59.541 Q 387.711 58.15 387.066 57.581 Q 386.193 56.809 384.473 56.809 Q 382.867 56.809 382.102 57.372 Q 381.337 57.935 380.97 59.364 L 378.744 59.06 Q 379.048 57.631 379.743 56.752 Q 380.439 55.873 381.754 55.399 Q 383.069 54.925 384.802 54.925 Q 386.522 54.925 387.597 55.33 Q 388.672 55.734 389.178 56.348 Q 389.684 56.961 389.886 57.897 Q 390 58.479 390 59.996 L 390 63.031 Q 390 66.206 390.145 67.047 Q 390.291 67.888 390.721 68.659 L 388.343 68.659 Q 387.989 67.951 387.888 67.002 Z M 387.698 61.918 Q 386.459 62.424 383.98 62.778 Q 382.576 62.981 381.995 63.234 Q 381.413 63.487 381.097 63.973 Q 380.78 64.46 380.78 65.055 Q 380.78 65.965 381.47 66.572 Q 382.159 67.179 383.487 67.179 Q 384.802 67.179 385.826 66.604 Q 386.851 66.029 387.331 65.029 Q 387.698 64.258 387.698 62.753 Z M 398.5 66.623 L 398.829 68.634 Q 397.868 68.836 397.109 68.836 Q 395.87 68.836 395.187 68.444 Q 394.504 68.052 394.226 67.413 Q 393.947 66.775 393.947 64.726 L 393.947 56.999 L 392.278 56.999 L 392.278 55.228 L 393.947 55.228 L 393.947 51.902 L 396.211 50.537 L 396.211 55.228 L 398.5 55.228 L 398.5 56.999 L 396.211 56.999 L 396.211 64.852 Q 396.211 65.826 396.331 66.104 Q 396.451 66.383 396.723 66.547 Q 396.995 66.711 397.501 66.711 Q 397.88 66.711 398.5 66.623 Z M 405.688 66.623 L 406.016 68.634 Q 405.055 68.836 404.296 68.836 Q 403.057 68.836 402.374 68.444 Q 401.691 68.052 401.413 67.413 Q 401.135 66.775 401.135 64.726 L 401.135 56.999 L 399.466 56.999 L 399.466 55.228 L 401.135 55.228 L 401.135 51.902 L 403.399 50.537 L 403.399 55.228 L 405.688 55.228 L 405.688 56.999 L 403.399 56.999 L 403.399 64.852 Q 403.399 65.826 403.519 66.104 Q 403.639 66.383 403.911 66.547 Q 404.183 66.711 404.689 66.711 Q 405.068 66.711 405.688 66.623 Z M 407.87 68.659 L 407.87 50.119 L 410.146 50.119 L 410.146 68.659 Z M 422.865 64.334 L 425.217 64.625 Q 424.66 66.686 423.156 67.824 Q 421.651 68.963 419.311 68.963 Q 416.364 68.963 414.638 67.148 Q 412.912 65.333 412.912 62.058 Q 412.912 58.668 414.657 56.797 Q 416.402 54.925 419.185 54.925 Q 421.878 54.925 423.585 56.759 Q 425.293 58.592 425.293 61.918 Q 425.293 62.121 425.28 62.525 L 415.264 62.525 Q 415.391 64.739 416.516 65.915 Q 417.642 67.091 419.324 67.091 Q 420.576 67.091 421.461 66.433 Q 422.346 65.776 422.865 64.334 Z M 415.391 60.654 L 422.89 60.654 Q 422.738 58.959 422.03 58.112 Q 420.942 56.797 419.21 56.797 Q 417.642 56.797 416.573 57.846 Q 415.504 58.896 415.391 60.654 Z M 435.479 68.659 L 435.479 50.119 L 439.172 50.119 L 443.56 63.246 Q 444.168 65.08 444.446 65.991 Q 444.762 64.979 445.432 63.019 L 449.871 50.119 L 453.172 50.119 L 453.172 68.659 L 450.807 68.659 L 450.807 53.142 L 445.42 68.659 L 443.206 68.659 L 437.844 52.876 L 437.844 68.659 Z M 465.607 67.002 Q 464.342 68.077 463.172 68.52 Q 462.002 68.963 460.662 68.963 Q 458.449 68.963 457.26 67.881 Q 456.071 66.8 456.071 65.118 Q 456.071 64.132 456.52 63.316 Q 456.969 62.5 457.696 62.007 Q 458.423 61.514 459.334 61.261 Q 460.004 61.084 461.357 60.919 Q 464.114 60.591 465.417 60.135 Q 465.429 59.667 465.429 59.541 Q 465.429 58.15 464.785 57.581 Q 463.912 56.809 462.192 56.809 Q 460.586 56.809 459.821 57.372 Q 459.056 57.935 458.689 59.364 L 456.463 59.06 Q 456.767 57.631 457.462 56.752 Q 458.158 55.873 459.473 55.399 Q 460.788 54.925 462.521 54.925 Q 464.241 54.925 465.316 55.33 Q 466.391 55.734 466.896 56.348 Q 467.402 56.961 467.605 57.897 Q 467.719 58.479 467.719 59.996 L 467.719 63.031 Q 467.719 66.206 467.864 67.047 Q 468.009 67.888 468.439 68.659 L 466.062 68.659 Q 465.708 67.951 465.607 67.002 Z M 465.417 61.918 Q 464.177 62.424 461.699 62.778 Q 460.295 62.981 459.713 63.234 Q 459.132 63.487 458.815 63.973 Q 458.499 64.46 458.499 65.055 Q 458.499 65.965 459.188 66.572 Q 459.878 67.179 461.206 67.179 Q 462.521 67.179 463.545 66.604 Q 464.57 66.029 465.05 65.029 Q 465.417 64.258 465.417 62.753 Z M 471.249 68.659 L 471.249 55.228 L 473.298 55.228 L 473.298 57.138 Q 474.777 54.925 477.572 54.925 Q 478.786 54.925 479.804 55.361 Q 480.822 55.798 481.328 56.506 Q 481.834 57.214 482.036 58.188 Q 482.163 58.82 482.163 60.401 L 482.163 68.659 L 479.886 68.659 L 479.886 60.489 Q 479.886 59.098 479.621 58.409 Q 479.355 57.72 478.679 57.309 Q 478.002 56.898 477.091 56.898 Q 475.637 56.898 474.581 57.821 Q 473.525 58.744 473.525 61.324 L 473.525 68.659 Z M 494.419 67.002 Q 493.154 68.077 491.985 68.52 Q 490.815 68.963 489.474 68.963 Q 487.261 68.963 486.072 67.881 Q 484.884 66.8 484.884 65.118 Q 484.884 64.132 485.333 63.316 Q 485.781 62.5 486.509 62.007 Q 487.236 61.514 488.146 61.261 Q 488.817 61.084 490.17 60.919 Q 492.927 60.591 494.229 60.135 Q 494.242 59.667 494.242 59.541 Q 494.242 58.15 493.597 57.581 Q 492.724 56.809 491.004 56.809 Q 489.398 56.809 488.633 57.372 Q 487.868 57.935 487.501 59.364 L 485.276 59.06 Q 485.579 57.631 486.275 56.752 Q 486.97 55.873 488.285 55.399 Q 489.601 54.925 491.333 54.925 Q 493.053 54.925 494.128 55.33 Q 495.203 55.734 495.709 56.348 Q 496.215 56.961 496.417 57.897 Q 496.531 58.479 496.531 59.996 L 496.531 63.031 Q 496.531 66.206 496.676 67.047 Q 496.822 67.888 497.252 68.659 L 494.874 68.659 Q 494.52 67.951 494.419 67.002 Z M 494.229 61.918 Q 492.99 62.424 490.511 62.778 Q 489.108 62.981 488.526 63.234 Q 487.944 63.487 487.628 63.973 Q 487.312 64.46 487.312 65.055 Q 487.312 65.965 488.001 66.572 Q 488.69 67.179 490.018 67.179 Q 491.333 67.179 492.358 66.604 Q 493.382 66.029 493.863 65.029 Q 494.229 64.258 494.229 62.753 Z M 499.644 69.772 L 501.857 70.101 Q 501.996 71.125 502.629 71.593 Q 503.476 72.225 504.943 72.225 Q 506.524 72.225 507.384 71.593 Q 508.244 70.961 508.547 69.822 Q 508.724 69.127 508.711 66.901 Q 507.219 68.659 504.993 68.659 Q 502.224 68.659 500.706 66.661 Q 499.189 64.663 499.189 61.868 Q 499.189 59.946 499.884 58.32 Q 500.58 56.695 501.901 55.81 Q 503.223 54.925 505.006 54.925 Q 507.384 54.925 508.926 56.847 L 508.926 55.228 L 511.026 55.228 L 511.026 66.838 Q 511.026 69.974 510.387 71.283 Q 509.748 72.592 508.364 73.351 Q 506.979 74.11 504.955 74.11 Q 502.553 74.11 501.073 73.028 Q 499.593 71.947 499.644 69.772 Z M 501.528 61.703 Q 501.528 64.347 502.578 65.561 Q 503.628 66.775 505.208 66.775 Q 506.777 66.775 507.839 65.567 Q 508.901 64.359 508.901 61.779 Q 508.901 59.313 507.807 58.061 Q 506.713 56.809 505.17 56.809 Q 503.653 56.809 502.591 58.042 Q 501.528 59.275 501.528 61.703 Z M 523.662 64.334 L 526.014 64.625 Q 525.457 66.686 523.952 67.824 Q 522.447 68.963 520.108 68.963 Q 517.161 68.963 515.435 67.148 Q 513.709 65.333 513.709 62.058 Q 513.709 58.668 515.454 56.797 Q 517.199 54.925 519.981 54.925 Q 522.675 54.925 524.382 56.759 Q 526.09 58.592 526.09 61.918 Q 526.09 62.121 526.077 62.525 L 516.061 62.525 Q 516.187 64.739 517.313 65.915 Q 518.439 67.091 520.121 67.091 Q 521.373 67.091 522.258 66.433 Q 523.143 65.776 523.662 64.334 Z M 516.187 60.654 L 523.687 60.654 Q 523.535 58.959 522.827 58.112 Q 521.739 56.797 520.007 56.797 Q 518.439 56.797 517.37 57.846 Q 516.301 58.896 516.187 60.654 Z M 528.874 68.659 L 528.874 55.228 L 530.91 55.228 L 530.91 57.113 Q 531.542 56.126 532.592 55.526 Q 533.642 54.925 534.982 54.925 Q 536.474 54.925 537.429 55.545 Q 538.384 56.164 538.776 57.277 Q 540.369 54.925 542.924 54.925 Q 544.922 54.925 545.997 56.031 Q 547.072 57.138 547.072 59.44 L 547.072 68.659 L 544.808 68.659 L 544.808 60.198 Q 544.808 58.833 544.587 58.232 Q 544.366 57.631 543.784 57.265 Q 543.202 56.898 542.418 56.898 Q 541.002 56.898 540.066 57.84 Q 539.13 58.782 539.13 60.856 L 539.13 68.659 L 536.854 68.659 L 536.854 59.933 Q 536.854 58.415 536.297 57.657 Q 535.741 56.898 534.476 56.898 Q 533.515 56.898 532.699 57.404 Q 531.884 57.909 531.517 58.883 Q 531.15 59.857 531.15 61.691 L 531.15 68.659 Z M 559.63 64.334 L 561.983 64.625 Q 561.426 66.686 559.921 67.824 Q 558.416 68.963 556.077 68.963 Q 553.13 68.963 551.404 67.148 Q 549.677 65.333 549.677 62.058 Q 549.677 58.668 551.423 56.797 Q 553.168 54.925 555.95 54.925 Q 558.644 54.925 560.351 56.759 Q 562.058 58.592 562.058 61.918 Q 562.058 62.121 562.046 62.525 L 552.03 62.525 Q 552.156 64.739 553.282 65.915 Q 554.407 67.091 556.089 67.091 Q 557.341 67.091 558.227 66.433 Q 559.112 65.776 559.63 64.334 Z M 552.156 60.654 L 559.656 60.654 Q 559.504 58.959 558.796 58.112 Q 557.708 56.797 555.975 56.797 Q 554.407 56.797 553.339 57.846 Q 552.27 58.896 552.156 60.654 Z M 564.843 68.659 L 564.843 55.228 L 566.891 55.228 L 566.891 57.138 Q 568.371 54.925 571.166 54.925 Q 572.38 54.925 573.398 55.361 Q 574.416 55.798 574.922 56.506 Q 575.428 57.214 575.63 58.188 Q 575.756 58.82 575.756 60.401 L 575.756 68.659 L 573.48 68.659 L 573.48 60.489 Q 573.48 59.098 573.215 58.409 Q 572.949 57.72 572.272 57.309 Q 571.596 56.898 570.685 56.898 Q 569.231 56.898 568.175 57.821 Q 567.119 58.744 567.119 61.324 L 567.119 68.659 Z M 584.219 66.623 L 584.548 68.634 Q 583.587 68.836 582.828 68.836 Q 581.588 68.836 580.905 68.444 Q 580.223 68.052 579.944 67.413 Q 579.666 66.775 579.666 64.726 L 579.666 56.999 L 577.997 56.999 L 577.997 55.228 L 579.666 55.228 L 579.666 51.902 L 581.93 50.537 L 581.93 55.228 L 584.219 55.228 L 584.219 56.999 L 581.93 56.999 L 581.93 64.852 Q 581.93 65.826 582.05 66.104 Q 582.17 66.383 582.442 66.547 Q 582.714 66.711 583.22 66.711 Q 583.599 66.711 584.219 66.623 Z M 593.905 68.659 L 593.905 50.119 L 596.422 50.119 L 606.159 64.675 L 606.159 50.119 L 608.512 50.119 L 608.512 68.659 L 605.995 68.659 L 596.257 54.09 L 596.257 68.659 Z M 621.537 64.334 L 623.889 64.625 Q 623.332 66.686 621.827 67.824 Q 620.322 68.963 617.983 68.963 Q 615.036 68.963 613.31 67.148 Q 611.584 65.333 611.584 62.058 Q 611.584 58.668 613.329 56.797 Q 615.074 54.925 617.856 54.925 Q 620.55 54.925 622.257 56.759 Q 623.965 58.592 623.965 61.918 Q 623.965 62.121 623.952 62.525 L 613.936 62.525 Q 614.062 64.739 615.188 65.915 Q 616.314 67.091 617.996 67.091 Q 619.248 67.091 620.133 66.433 Q 621.018 65.776 621.537 64.334 Z M 614.062 60.654 L 621.562 60.654 Q 621.41 58.959 620.702 58.112 Q 619.614 56.797 617.882 56.797 Q 616.314 56.797 615.245 57.846 Q 614.176 58.896 614.062 60.654 Z M 635.943 64.334 L 638.295 64.625 Q 637.739 66.686 636.234 67.824 Q 634.729 68.963 632.389 68.963 Q 629.442 68.963 627.716 67.148 Q 625.99 65.333 625.99 62.058 Q 625.99 58.668 627.735 56.797 Q 629.48 54.925 632.263 54.925 Q 634.956 54.925 636.664 56.759 Q 638.371 58.592 638.371 61.918 Q 638.371 62.121 638.358 62.525 L 628.342 62.525 Q 628.469 64.739 629.594 65.915 Q 630.72 67.091 632.402 67.091 Q 633.654 67.091 634.539 66.433 Q 635.424 65.776 635.943 64.334 Z M 628.469 60.654 L 635.968 60.654 Q 635.816 58.959 635.108 58.112 Q 634.021 56.797 632.288 56.797 Q 630.72 56.797 629.651 57.846 Q 628.583 58.896 628.469 60.654 Z M 649.868 68.659 L 649.868 66.964 Q 648.591 68.963 646.112 68.963 Q 644.506 68.963 643.159 68.077 Q 641.813 67.192 641.073 65.605 Q 640.333 64.018 640.333 61.956 Q 640.333 59.946 641.003 58.308 Q 641.674 56.67 643.014 55.798 Q 644.355 54.925 646.011 54.925 Q 647.225 54.925 648.174 55.437 Q 649.122 55.949 649.717 56.771 L 649.717 50.119 L 651.98 50.119 L 651.98 68.659 Z M 642.673 61.956 Q 642.673 64.536 643.76 65.814 Q 644.848 67.091 646.327 67.091 Q 647.82 67.091 648.863 65.87 Q 649.906 64.65 649.906 62.146 Q 649.906 59.389 648.844 58.099 Q 647.782 56.809 646.226 56.809 Q 644.709 56.809 643.691 58.049 Q 642.673 59.288 642.673 61.956 Z M 654.651 64.65 L 656.902 64.296 Q 657.092 65.649 657.958 66.37 Q 658.824 67.091 660.38 67.091 Q 661.948 67.091 662.707 66.452 Q 663.465 65.814 663.465 64.954 Q 663.465 64.182 662.795 63.74 Q 662.327 63.436 660.468 62.968 Q 657.964 62.336 656.997 61.874 Q 656.029 61.413 655.53 60.597 Q 655.03 59.781 655.03 58.795 Q 655.03 57.897 655.441 57.132 Q 655.852 56.367 656.56 55.861 Q 657.092 55.469 658.008 55.197 Q 658.925 54.925 659.975 54.925 Q 661.556 54.925 662.751 55.38 Q 663.946 55.835 664.515 56.613 Q 665.084 57.391 665.299 58.694 L 663.073 58.997 Q 662.922 57.96 662.194 57.378 Q 661.467 56.797 660.139 56.797 Q 658.571 56.797 657.901 57.315 Q 657.231 57.834 657.231 58.529 Q 657.231 58.972 657.509 59.326 Q 657.787 59.693 658.381 59.933 Q 658.723 60.059 660.392 60.515 Q 662.808 61.16 663.763 61.571 Q 664.717 61.982 665.261 62.766 Q 665.805 63.55 665.805 64.713 Q 665.805 65.851 665.141 66.857 Q 664.477 67.862 663.225 68.412 Q 661.973 68.963 660.392 68.963 Q 657.774 68.963 656.402 67.875 Q 655.03 66.787 654.651 64.65 Z M 675.715 52.737 L 675.715 50.119 L 677.991 50.119 L 677.991 52.737 Z M 675.715 68.659 L 675.715 55.228 L 677.991 55.228 L 677.991 68.659 Z M 681.468 68.659 L 681.468 55.228 L 683.516 55.228 L 683.516 57.138 Q 684.996 54.925 687.791 54.925 Q 689.005 54.925 690.023 55.361 Q 691.041 55.798 691.547 56.506 Q 692.053 57.214 692.255 58.188 Q 692.381 58.82 692.381 60.401 L 692.381 68.659 L 690.105 68.659 L 690.105 60.489 Q 690.105 59.098 689.84 58.409 Q 689.574 57.72 688.897 57.309 Q 688.221 56.898 687.31 56.898 Q 685.856 56.898 684.8 57.821 Q 683.744 58.744 683.744 61.324 L 683.744 68.659 Z M 711.003 68.659 L 708.727 68.659 L 708.727 54.153 Q 707.905 54.938 706.571 55.722 Q 705.236 56.506 704.174 56.898 L 704.174 54.697 Q 706.084 53.799 707.513 52.522 Q 708.942 51.245 709.536 50.043 L 711.003 50.043 Z M 724.655 73.806 L 724.655 55.228 L 726.729 55.228 L 726.729 56.974 Q 727.463 55.949 728.386 55.437 Q 729.309 54.925 730.624 54.925 Q 732.344 54.925 733.659 55.81 Q 734.975 56.695 735.645 58.308 Q 736.315 59.92 736.315 61.843 Q 736.315 63.904 735.575 65.554 Q 734.835 67.205 733.425 68.084 Q 732.015 68.963 730.46 68.963 Q 729.322 68.963 728.417 68.482 Q 727.513 68.001 726.931 67.268 L 726.931 73.806 Z M 726.716 62.02 Q 726.716 64.612 727.766 65.851 Q 728.816 67.091 730.308 67.091 Q 731.826 67.091 732.907 65.807 Q 733.988 64.524 733.988 61.83 Q 733.988 59.263 732.932 57.985 Q 731.876 56.708 730.409 56.708 Q 728.955 56.708 727.836 58.068 Q 726.716 59.427 726.716 62.02 Z M 739.011 68.659 L 739.011 50.119 L 741.287 50.119 L 741.287 68.659 Z M 753.591 67.002 Q 752.326 68.077 751.156 68.52 Q 749.987 68.963 748.646 68.963 Q 746.433 68.963 745.244 67.881 Q 744.055 66.8 744.055 65.118 Q 744.055 64.132 744.504 63.316 Q 744.953 62.5 745.681 62.007 Q 746.408 61.514 747.318 61.261 Q 747.989 61.084 749.342 60.919 Q 752.099 60.591 753.401 60.135 Q 753.414 59.667 753.414 59.541 Q 753.414 58.15 752.769 57.581 Q 751.896 56.809 750.176 56.809 Q 748.57 56.809 747.805 57.372 Q 747.04 57.935 746.673 59.364 L 744.448 59.06 Q 744.751 57.631 745.447 56.752 Q 746.142 55.873 747.457 55.399 Q 748.773 54.925 750.505 54.925 Q 752.225 54.925 753.3 55.33 Q 754.375 55.734 754.881 56.348 Q 755.387 56.961 755.589 57.897 Q 755.703 58.479 755.703 59.996 L 755.703 63.031 Q 755.703 66.206 755.848 67.047 Q 755.994 67.888 756.424 68.659 L 754.046 68.659 Q 753.692 67.951 753.591 67.002 Z M 753.401 61.918 Q 752.162 62.424 749.683 62.778 Q 748.279 62.981 747.698 63.234 Q 747.116 63.487 746.8 63.973 Q 746.484 64.46 746.484 65.055 Q 746.484 65.965 747.173 66.572 Q 747.862 67.179 749.19 67.179 Q 750.505 67.179 751.53 66.604 Q 752.554 66.029 753.034 65.029 Q 753.401 64.258 753.401 62.753 Z M 767.982 63.74 L 770.22 64.03 Q 769.853 66.345 768.342 67.654 Q 766.831 68.963 764.63 68.963 Q 761.873 68.963 760.198 67.16 Q 758.522 65.358 758.522 61.994 Q 758.522 59.819 759.243 58.188 Q 759.964 56.556 761.437 55.741 Q 762.91 54.925 764.643 54.925 Q 766.831 54.925 768.222 56.031 Q 769.613 57.138 770.005 59.174 L 767.792 59.516 Q 767.476 58.162 766.673 57.48 Q 765.87 56.797 764.731 56.797 Q 763.011 56.797 761.937 58.03 Q 760.862 59.263 760.862 61.931 Q 760.862 64.637 761.899 65.864 Q 762.936 67.091 764.605 67.091 Q 765.945 67.091 766.843 66.269 Q 767.741 65.447 767.982 63.74 Z M 781.365 64.334 L 783.717 64.625 Q 783.16 66.686 781.656 67.824 Q 780.151 68.963 777.811 68.963 Q 774.864 68.963 773.138 67.148 Q 771.412 65.333 771.412 62.058 Q 771.412 58.668 773.157 56.797 Q 774.902 54.925 777.685 54.925 Q 780.378 54.925 782.085 56.759 Q 783.793 58.592 783.793 61.918 Q 783.793 62.121 783.78 62.525 L 773.764 62.525 Q 773.891 64.739 775.016 65.915 Q 776.142 67.091 777.824 67.091 Q 779.076 67.091 779.961 66.433 Q 780.846 65.776 781.365 64.334 Z M 773.891 60.654 L 781.39 60.654 Q 781.238 58.959 780.53 58.112 Q 779.442 56.797 777.71 56.797 Q 776.142 56.797 775.073 57.846 Q 774.004 58.896 773.891 60.654 Z" style="fill: rgb(147, 163, 184);"/>
</svg>