<?xml version="1.0" encoding="utf-8"?>
<svg viewBox="0 0 500 500" xmlns="http://www.w3.org/2000/svg">
  <g style="" transform="matrix(2.281651020050049, 0, 0, 2.281651020050049, -41.46783447265625, -43.74356460571292)">
    <g style="">
      <title>hilt</title>
      <path style="stroke-width: 5px; stroke: rgb(0, 0, 0); fill: rgb(126, 53, 38);" d="M 52.169 194.328 L 73.208 169.558 L 90.893 187.429 L 65.041 209.413 L 52.169 194.328 Z"/>
      <rect x="75.191" y="143.134" width="20.577" height="4.172" style="stroke: rgba(0, 0, 0, 0); transform-box: fill-box; transform-origin: 50% 50%;" transform="matrix(0.707107, 0.707107, -0.707107, 0.707107, -18.368324, 48.249201)"/>
      <rect x="75.191" y="158.927" width="20.577" height="4.632" style="stroke: rgba(0, 0, 0, 0); transform-origin: 85.48px 161.242px;" transform="matrix(0.707107, 0.707107, -0.707107, 0.707107, -10.997615, 24.343941)"/>
    </g>
    <ellipse style="stroke: rgb(0, 0, 0); stroke-width: 6px; fill: rgb(255, 188, 57);" cx="48.485" cy="211.99" rx="16.13" ry="16.13"/>
    <rect x="52.947" y="142.469" width="71.619" height="23.179" style="stroke: rgb(0, 0, 0); stroke-width: 8px; fill: rgb(255, 185, 49); transform-box: fill-box; transform-origin: 50% 50%;" transform="matrix(0.707107, 0.707107, -0.707107, 0.707107, 2.444787, 15.371213)"/>
    <path style="stroke-width: 6px; fill: rgb(204, 204, 204); stroke: rgb(0, 0, 0);" d="M 83.778 144.403 L 166.556 45.706 L 225.986 34.74 L 215.374 93.816 L 116.323 176.24 L 83.778 144.403 Z"/>
    <path style="fill: rgb(255, 255, 255); stroke: rgba(255, 0, 0, 0);" d="M 110.976 113.671 L 211.575 95.693 L 216.221 82.966 L 122.086 99.329 L 110.976 113.671 Z"/>
    <path style="stroke: rgba(219, 130, 130, 0); fill: rgb(255, 255, 255);" d="M 104.512 122.559 L 203.292 105.389 L 207.737 98.723 L 107.744 116.095 L 104.512 122.559 Z"/>
    <rect x="140.449" y="73.356" width="175.794" height="5.066" style="stroke: rgba(0, 0, 0, 0); transform-box: fill-box; transform-origin: 50% 50%;" transform="matrix(0.707107, -0.707107, 0.707107, 0.707107, -64.769841, 22.185314)"/>
    <path style="stroke-width: 6px; stroke: rgb(0, 0, 0); fill: rgba(204, 204, 204, 0);" d="M 83.8 144.363 L 166.578 45.666 L 226.008 34.7 L 215.396 93.776 L 116.345 176.2 L 83.8 144.363 Z"/>
  </g>
  <g transform="matrix(8.685184478759766, 0, 0, 8.685184478759766, 253.0047149658203, 297.51251220703125)" style="">
    <g>
      <path d="M19.14,12.94c0.04-0.3,0.06-0.61,0.06-0.94c0-0.32-0.02-0.64-0.07-0.94l2.03-1.58c0.18-0.14,0.23-0.41,0.12-0.61 l-1.92-3.32c-0.12-0.22-0.37-0.29-0.59-0.22l-2.39,0.96c-0.5-0.38-1.03-0.7-1.62-0.94L14.4,2.81c-0.04-0.24-0.24-0.41-0.48-0.41 h-3.84c-0.24,0-0.43,0.17-0.47,0.41L9.25,5.35C8.66,5.59,8.12,5.92,7.63,6.29L5.24,5.33c-0.22-0.08-0.47,0-0.59,0.22L2.74,8.87 C2.62,9.08,2.66,9.34,2.86,9.48l2.03,1.58C4.84,11.36,4.8,11.69,4.8,12s0.02,0.64,0.07,0.94l-2.03,1.58 c-0.18,0.14-0.23,0.41-0.12,0.61l1.92,3.32c0.12,0.22,0.37,0.29,0.59,0.22l2.39-0.96c0.5,0.38,1.03,0.7,1.62,0.94l0.36,2.54 c0.05,0.24,0.24,0.41,0.48,0.41h3.84c0.24,0,0.44-0.17,0.47-0.41l0.36-2.54c0.59-0.24,1.13-0.56,1.62-0.94l2.39,0.96 c0.22,0.08,0.47,0,0.59-0.22l1.92-3.32c0.12-0.22,0.07-0.47-0.12-0.61L19.14,12.94z M12,15.6c-1.98,0-3.6-1.62-3.6-3.6 s1.62-3.6,3.6-3.6s3.6,1.62,3.6,3.6S13.98,15.6,12,15.6z"/>
    </g>
  </g>
</svg>